<?xml version="1.0" standalone="no"?>
<!DOCTYPE svg PUBLIC "-//W3C//DTD SVG 20010904//EN"
 "http://www.w3.org/TR/2001/REC-SVG-20010904/DTD/svg10.dtd">
<svg version="1.0" xmlns="http://www.w3.org/2000/svg"
 width="512.000000pt" height="512.000000pt" viewBox="0 0 512.000000 512.000000"
 preserveAspectRatio="xMidYMid meet">
<metadata>
Created by potrace 1.14, written by Peter Selinger 2001-2017
</metadata>
<g transform="translate(0.000000,512.000000) scale(0.100000,-0.100000)"
fill="#000000" stroke="none">
<path d="M388 5104 c-185 -44 -336 -202 -377 -392 -16 -76 -16 -4228 0 -4304
32 -149 138 -287 276 -357 105 -53 0 -51 2273 -51 2273 0 2168 -2 2273 51 138
70 244 208 276 357 16 76 16 4228 0 4304 -32 149 -138 287 -276 357 -105 53 1
51 -2278 50 -1766 -1 -2119 -3 -2167 -15z m3895 -1013 c66 -11 123 -24 128
-27 5 -3 9 -73 9 -156 l0 -151 -52 7 c-29 4 -100 14 -158 22 -58 8 -177 17
-265 20 -174 7 -289 -7 -366 -47 -127 -64 -212 -248 -254 -549 -53 -386 -43
-1123 21 -1455 48 -252 130 -381 270 -425 58 -19 91 -22 209 -21 77 0 181 7
230 13 l90 13 3 493 2 492 -195 0 -195 0 0 155 0 155 375 0 375 0 0 -783 0
-784 -92 -16 c-220 -38 -346 -50 -558 -51 -234 -1 -330 11 -457 59 -369 139
-508 608 -490 1655 8 448 36 662 117 893 49 140 107 236 190 317 105 103 219
153 415 185 136 22 493 14 648 -14z m-2059 -1519 c198 -834 362 -1525 364
-1535 4 -16 -8 -17 -189 -15 l-193 3 -83 385 c-45 212 -82 386 -83 388 0 1
-195 1 -432 0 l-433 -3 -85 -387 -85 -388 -193 0 c-180 0 -193 1 -188 18 3 9
163 670 355 1467 192 798 357 1480 366 1518 l17 67 252 0 251 0 359 -1518z"/>
<path d="M1591 3750 c-79 -366 -341 -1609 -341 -1618 0 -9 90 -12 360 -12 198
0 360 3 360 6 0 17 -351 1642 -359 1659 -7 16 -10 10 -20 -35z"/>
</g>
</svg>
