<?xml version="1.0" encoding="utf-8"?>
<svg viewBox="117.181 28.808 251.479 248.689" width="251.479" height="248.689" xmlns="http://www.w3.org/2000/svg">
  <g id="g8" transform="matrix(1.333333, 0, 0, -1.333333, 60.273212, 396.857452)">
    <g id="g10" transform="scale(0.1)">
      <path d="m 958.965,2124.05 40.699,-1021 737.546,941.16 c 11.2,14.29 27.64,23.5 45.67,25.58 18.09,2.09 36.15,-3.13 50.31,-14.49 L 2293.3,1686.15 2143.55,2342.26 958.965,2124.05" style="fill:#526bbd;fill-opacity:1;fill-rule:nonzero;stroke:none" id="path12"/>
      <path d="M 1025.45,915.711 H 1679.7 L 1278,1237.97 Z" style="fill:#2a3b99;fill-opacity:1;fill-rule:nonzero;stroke:none" id="path14"/>
      <path d="m 1801.76,1906.33 -439.95,-561.42 468.79,-376.09 444.68,557.62 -473.52,379.89" style="fill:#3950aa;fill-opacity:1;fill-rule:nonzero;stroke:none" id="path16"/>
      <path d="m 835.648,2222.55 c 0.028,0.04 0.051,0.07 0.079,0.1 L 1222.63,2707.82 598.691,2407.35 444.59,1732.18 835.648,2222.55" style="fill:#c7dff5;fill-opacity:1;fill-rule:nonzero;stroke:none" id="path18"/>
      <path d="m 453.191,1525.07 414.399,-519.64 -39.453,989.8 z" style="fill:#7d98d5;fill-opacity:1;fill-rule:nonzero;stroke:none" id="path20"/>
      <path d="m 2023.08,2458.21 -596.62,287.31 -371.3,-465.61 z" style="fill:#abc2e8;fill-opacity:1;fill-rule:nonzero;stroke:none" id="path22"/>
    </g>
  </g>
</svg>